<svg width="17" height="16" viewBox="0 0 17 16" fill="none" xmlns="http://www.w3.org/2000/svg">
<path fill-rule="evenodd" clip-rule="evenodd" d="M4.65719 2.9447C4.60215 2.88191 4.58809 2.79166 4.62129 2.71429C4.6545 2.63692 4.72876 2.58687 4.81089 2.58652H7.11014L8.30863 0.117887C8.34404 0.0455961 8.41595 0 8.49457 0C8.57318 0 8.6451 0.0455961 8.68051 0.117887L9.879 2.58652H12.1875C12.2693 2.58643 12.3435 2.63586 12.377 2.71275C12.4105 2.78963 12.397 2.87962 12.3426 2.94251L10.5066 5.08506L11.1271 7.71126C11.1463 7.79894 11.1114 7.88979 11.0392 7.94032C10.9661 7.99001 10.8704 7.9868 10.8005 7.9323L8.49421 6.1545L6.20347 7.92427C6.13256 7.97861 6.03608 7.98093 5.96278 7.93006C5.88949 7.87919 5.85536 7.78621 5.87764 7.69813L6.54772 5.08506L4.65719 2.9447ZM0.0536715 10.9692C-0.00136729 10.9064 -0.0154261 10.8162 0.017777 10.7388C0.0509802 10.6614 0.125242 10.6114 0.207379 10.611H2.50662L3.70512 8.14239C3.74052 8.0701 3.81244 8.02451 3.89105 8.02451C3.96967 8.02451 4.04159 8.0701 4.07699 8.14239L5.27549 10.611H7.58393C7.66576 10.6109 7.74 10.6604 7.7735 10.7373C7.80701 10.8141 7.79352 10.9041 7.73906 10.967L5.90307 13.1096L6.52356 15.7358C6.54274 15.8235 6.5079 15.9143 6.43573 15.9648C6.36255 16.0145 6.2669 16.0113 6.19702 15.9568L3.8907 14.179L1.59996 15.9488C1.52905 16.0031 1.43256 16.0054 1.35927 15.9546C1.28597 15.9037 1.25184 15.8107 1.27413 15.7226L1.94421 13.1096L0.0536715 10.9692ZM9.22676 10.7387C9.19356 10.8161 9.20762 10.9063 9.26266 10.9691L11.1532 13.1095L10.4831 15.7225C10.4608 15.8106 10.495 15.9036 10.5683 15.9545C10.6415 16.0053 10.738 16.003 10.8089 15.9487L13.0997 14.1789L15.406 15.9538C15.4759 16.0083 15.5715 16.0115 15.6447 15.9618C15.7169 15.9113 15.7517 15.8204 15.7325 15.7328L15.1121 13.1066L16.948 10.9669C17.0025 10.904 17.016 10.814 16.9825 10.7372C16.949 10.6603 16.8747 10.6108 16.7929 10.6109H14.4845L13.286 8.1423C13.2506 8.07001 13.1787 8.02441 13.1 8.02441C13.0214 8.02441 12.9495 8.07001 12.9141 8.1423L11.7156 10.6109H9.41636C9.33423 10.6113 9.25996 10.6613 9.22676 10.7387Z" fill="#AAB0C6"/>
</svg>
