<svg width="17" height="16" viewBox="0 0 17 16" fill="none" xmlns="http://www.w3.org/2000/svg">
<path fill-rule="evenodd" clip-rule="evenodd" d="M13.9091 1.52381H15.4545C16.3081 1.52381 17 2.20604 17 3.04762V14.4762C17 15.3178 16.3081 16 15.4545 16H1.54545C0.691923 16 0 15.3178 0 14.4762V3.04762C0 2.20604 0.691923 1.52381 1.54545 1.52381H3.09091V3.80952H4.63636V0H6.18182V1.52381H10.8182V3.80952H12.3636V0H13.9091V1.52381ZM2.31836 13.7143H5.40927V10.6667H2.31836V13.7143ZM5.40927 9.14286H2.31836V6.09524H5.40927V9.14286ZM6.9541 13.7144H10.045V10.6667H6.9541V13.7144ZM10.045 9.14283H6.9541V6.09521H10.045V9.14283ZM11.5909 9.14286H14.6818V6.09524H11.5909V9.14286Z" fill="#AAB0C6"/>
</svg>
