<svg width="17" height="14" viewBox="0 0 17 14" fill="none" xmlns="http://www.w3.org/2000/svg">
<path d="M16.5725 3.97104L8.8453 0.0820316C8.62785 -0.0273439 8.37194 -0.0273439 8.15449 0.0820316L0.427313 3.97104C0.276313 4.04942 0.155188 4.17572 0.0826808 4.33038C0.0348025 4.4363 0.00677204 4.55022 0 4.66639V9.15041C0 9.57998 0.345958 9.92821 0.772718 9.92821C1.19948 9.92821 1.54544 9.57998 1.54544 9.15041V5.57253L8.51149 8.49395L16.5145 5.38897C16.797 5.2751 16.9868 5.00493 16.9993 4.69888C17.0119 4.39282 16.8447 4.10788 16.5725 3.97104Z" fill="#AAB0C6"/>
<path fill-rule="evenodd" clip-rule="evenodd" d="M8.2024 10.0508C8.2967 10.0903 8.39779 10.1106 8.4999 10.1107C8.59465 10.111 8.68866 10.0939 8.7773 10.0602L13.9089 8.07368V10.2515C13.9088 10.546 13.7434 10.8152 13.4816 10.9469C11.9815 11.8791 10.2624 12.3939 8.4999 12.4387C6.73734 12.3945 5.01809 11.8797 3.51819 10.9469C3.25644 10.8152 3.09103 10.546 3.09087 10.2515V7.90723L8.2024 10.0508ZM0 11.6662C0 11.2367 0.345958 10.8884 0.772718 10.8884C1.19948 10.8884 1.54544 11.2367 1.54544 11.6662V13.2218C1.54544 13.6514 1.19948 13.9996 0.772718 13.9996C0.345958 13.9996 0 13.6514 0 13.2218V11.6662Z" fill="#AAB0C6"/>
</svg>
