<svg width="26" height="26" viewBox="0 0 26 26" fill="none" xmlns="http://www.w3.org/2000/svg">
<path fill-rule="evenodd" clip-rule="evenodd" d="M26 13C26 20.1797 20.1796 26 13.0001 26C5.82037 26 0 20.1797 0 13C0 5.82027 5.82037 0 13.0001 0C20.1796 0 26 5.82027 26 13Z" fill="#0072FF"/>
<path fill-rule="evenodd" clip-rule="evenodd" d="M14.3224 11.8199C14.7874 11.2252 15.3659 10.8495 16.1028 10.7776C17.6103 10.6309 18.7824 11.2959 19.1742 12.8642C19.2672 13.2364 19.3114 13.6288 19.3165 14.0128C19.3336 15.332 19.3185 16.6516 19.3283 17.9707C19.3299 18.1965 19.2609 18.2623 19.0366 18.2575C18.4054 18.2436 17.7736 18.2529 17.142 18.2526C16.8181 18.2525 16.8169 18.2521 16.8168 17.9378C16.8163 16.7427 16.8187 15.5475 16.8141 14.3523C16.8134 14.1443 16.8005 13.9334 16.7633 13.7292C16.6767 13.2554 16.4501 12.8767 15.9429 12.763C15.3891 12.6389 14.9302 12.8097 14.5871 13.2677C14.382 13.5418 14.3235 13.8586 14.323 14.1897C14.3215 15.4392 14.3224 16.6888 14.3224 17.9382V18.2276C14.2436 18.2374 14.1844 18.2513 14.1252 18.2514C13.439 18.2529 12.7527 18.2467 12.0667 18.2563C11.8834 18.2588 11.8478 18.189 11.8481 18.0245C11.8527 15.7351 11.8536 13.4457 11.8477 11.1561C11.8472 10.9679 11.9134 10.9133 12.0902 10.9146C12.7528 10.9202 13.4157 10.9224 14.0783 10.9134C14.2763 10.9109 14.3378 10.9838 14.3256 11.1729C14.3118 11.3878 14.3224 11.6042 14.3224 11.8199Z" fill="#FEFEFE"/>
<path fill-rule="evenodd" clip-rule="evenodd" d="M10.5713 14.6012C10.5713 15.7188 10.5657 16.8365 10.5761 17.954C10.5781 18.1845 10.5176 18.2641 10.2752 18.2579C9.62843 18.2412 8.98083 18.2457 8.33385 18.2561C8.137 18.2592 8.05994 18.2123 8.06055 17.9995C8.06727 15.7254 8.06702 13.4514 8.06079 11.1773C8.06031 10.9672 8.13895 10.9109 8.33532 10.9133C8.99024 10.9212 9.6454 10.9235 10.3002 10.9122C10.5232 10.9085 10.5763 10.9965 10.575 11.2018C10.5674 12.3349 10.5713 13.4681 10.5713 14.6012Z" fill="#FEFEFE"/>
<path fill-rule="evenodd" clip-rule="evenodd" d="M10.7173 8.71945C10.7168 9.45288 10.1233 9.99561 9.31586 10.001C8.5277 10.0062 7.92395 9.44474 7.92383 8.70657C7.92383 7.96353 8.53393 7.40756 9.34223 7.41412C10.1437 7.42056 10.7179 7.96559 10.7173 8.71945Z" fill="#FEFEFE"/>
</svg>
