<svg width="248" height="25" viewBox="0 0 248 25" fill="none" xmlns="http://www.w3.org/2000/svg">
<path d="M33.2188 7.48438H35.625V16.9297H41.3281V19H33.2188V7.48438ZM45.1094 10.4844V19H42.8516V10.4844H45.1094ZM45.1094 7.41406V9.46875H42.8516V7.41406H45.1094ZM51.2812 12.1328C50.526 12.1328 50.0078 12.4531 49.7266 13.0938C49.5807 13.4323 49.5078 13.8646 49.5078 14.3906V19H47.2891V10.5H49.4375V11.7422C49.724 11.3047 49.9948 10.9896 50.25 10.7969C50.7083 10.4531 51.2891 10.2812 51.9922 10.2812C52.8724 10.2812 53.5911 10.513 54.1484 10.9766C54.7109 11.4349 54.9922 12.1979 54.9922 13.2656V19H52.7109V13.8203C52.7109 13.3724 52.651 13.0286 52.5312 12.7891C52.3125 12.3516 51.8958 12.1328 51.2812 12.1328ZM64.8672 19H62.1797L60.1406 15.3594L59.2188 16.3203V19H57.0312V7.52344H59.2188V13.7266L61.9922 10.5234H64.75L61.7734 13.7812L64.8672 19ZM73.25 16.5C73.1927 17.0052 72.9297 17.5182 72.4609 18.0391C71.7318 18.8672 70.7109 19.2812 69.3984 19.2812C68.3151 19.2812 67.3594 18.9323 66.5312 18.2344C65.7031 17.5365 65.2891 16.401 65.2891 14.8281C65.2891 13.3542 65.6615 12.224 66.4062 11.4375C67.1562 10.651 68.1276 10.2578 69.3203 10.2578C70.0286 10.2578 70.6667 10.3906 71.2344 10.6562C71.8021 10.9219 72.2708 11.3411 72.6406 11.9141C72.974 12.4193 73.1901 13.0052 73.2891 13.6719C73.3464 14.0625 73.3698 14.625 73.3594 15.3594H67.5312C67.5625 16.2135 67.8307 16.8125 68.3359 17.1562C68.6432 17.3698 69.013 17.4766 69.4453 17.4766C69.9036 17.4766 70.276 17.3464 70.5625 17.0859C70.7188 16.9453 70.8568 16.75 70.9766 16.5H73.25ZM71.0469 13.8906C71.0104 13.3021 70.8307 12.8568 70.5078 12.5547C70.1901 12.2474 69.7943 12.0938 69.3203 12.0938C68.8047 12.0938 68.4036 12.2552 68.1172 12.5781C67.8359 12.901 67.6589 13.3385 67.5859 13.8906H71.0469ZM82.6172 7.5V19H80.4531V17.8203C80.1354 18.3255 79.7734 18.6927 79.3672 18.9219C78.9609 19.151 78.4557 19.2656 77.8516 19.2656C76.8568 19.2656 76.0182 18.8646 75.3359 18.0625C74.6589 17.2552 74.3203 16.2214 74.3203 14.9609C74.3203 13.5078 74.6536 12.3646 75.3203 11.5312C75.9922 10.6979 76.888 10.2812 78.0078 10.2812C78.5234 10.2812 78.9818 10.3958 79.3828 10.625C79.7839 10.849 80.1094 11.1615 80.3594 11.5625V7.5H82.6172ZM76.6172 14.7969C76.6172 15.5833 76.7734 16.2109 77.0859 16.6797C77.3932 17.1536 77.862 17.3906 78.4922 17.3906C79.1224 17.3906 79.6016 17.1562 79.9297 16.6875C80.2578 16.2188 80.4219 15.612 80.4219 14.8672C80.4219 13.8255 80.1589 13.0807 79.6328 12.6328C79.3099 12.362 78.9349 12.2266 78.5078 12.2266C77.8568 12.2266 77.3776 12.474 77.0703 12.9688C76.7682 13.4583 76.6172 14.0677 76.6172 14.7969ZM84.6406 7.48438H87.0312V19H84.6406V7.48438ZM93.1094 12.1328C92.3542 12.1328 91.8359 12.4531 91.5547 13.0938C91.4089 13.4323 91.3359 13.8646 91.3359 14.3906V19H89.1172V10.5H91.2656V11.7422C91.5521 11.3047 91.8229 10.9896 92.0781 10.7969C92.5365 10.4531 93.1172 10.2812 93.8203 10.2812C94.7005 10.2812 95.4193 10.513 95.9766 10.9766C96.5391 11.4349 96.8203 12.1979 96.8203 13.2656V19H94.5391V13.8203C94.5391 13.3724 94.4792 13.0286 94.3594 12.7891C94.1406 12.3516 93.724 12.1328 93.1094 12.1328Z" fill="#0072FF"/>
<path fill-rule="evenodd" clip-rule="evenodd" d="M12.0001 24C18.6274 24 24 18.6274 24 12C24 5.37256 18.6274 0 12.0001 0C5.37265 0 0 5.37256 0 12C0 18.6274 5.37265 24 12.0001 24ZM14.8391 9.97733C14.1601 10.0438 13.627 10.3917 13.1985 10.9423C13.1985 10.8818 13.1976 10.8212 13.1967 10.7606C13.1946 10.6213 13.1926 10.482 13.2014 10.3433C13.2127 10.1682 13.1561 10.1007 12.9735 10.103C12.3629 10.1114 11.7521 10.1093 11.1415 10.1042C10.9785 10.1029 10.9175 10.1535 10.918 10.3278C10.9235 12.4475 10.9226 14.5671 10.9184 16.6867C10.9181 16.8391 10.9509 16.9037 11.1199 16.9013C11.5455 16.8953 11.9713 16.896 12.3971 16.8966H12.3975C12.6039 16.8969 12.8103 16.8972 13.0168 16.8968C13.0528 16.8967 13.0889 16.8911 13.1302 16.8847C13.1513 16.8814 13.1739 16.8778 13.1985 16.8748V16.6068L13.1984 15.6725V15.6704C13.1982 14.8257 13.1981 13.981 13.1991 13.1363C13.1995 12.8298 13.2534 12.5365 13.4425 12.2827C13.7586 11.8587 14.1815 11.7006 14.6918 11.8155C15.1592 11.9207 15.3681 12.2714 15.4478 12.71C15.4822 12.8991 15.494 13.0943 15.4947 13.2869C15.4977 14.0696 15.4974 14.8523 15.4972 15.6349V15.6349C15.4971 15.9588 15.497 16.2826 15.4971 16.6065C15.4972 16.8975 15.4984 16.8978 15.7968 16.8979C15.9662 16.898 16.1356 16.8973 16.305 16.8966C16.7177 16.895 17.1304 16.8933 17.5428 16.9024C17.7494 16.9069 17.813 16.8459 17.8116 16.637C17.8076 16.1043 17.8081 15.5715 17.8085 15.0387C17.809 14.35 17.8096 13.6612 17.8007 12.9726C17.796 12.6171 17.7553 12.2537 17.6695 11.9091C17.3085 10.4572 16.2284 9.84151 14.8391 9.97733ZM9.74146 13.5175C9.74146 13.7864 9.74111 14.0554 9.74076 14.3243C9.73977 15.0901 9.73877 15.8559 9.74585 16.6217C9.74776 16.835 9.69195 16.9088 9.46856 16.903C8.87258 16.8876 8.2758 16.8918 7.67959 16.9013C7.49819 16.9043 7.42718 16.8608 7.42774 16.6638C7.43393 14.5583 7.43371 12.453 7.42797 10.3476C7.42752 10.153 7.49999 10.1009 7.68094 10.1032C8.28447 10.1105 8.88822 10.1126 9.49163 10.1022C9.69712 10.0987 9.74607 10.1801 9.74484 10.3702C9.73963 11.1529 9.74031 11.9355 9.741 12.7182V12.7182C9.74123 12.9847 9.74146 13.2511 9.74146 13.5175ZM8.58357 9.2475C9.32765 9.24215 9.87457 8.69975 9.87502 7.96674C9.87558 7.21332 9.34644 6.66861 8.60787 6.66217C7.86301 6.65561 7.30078 7.21125 7.30078 7.95386C7.30089 8.69161 7.85727 9.25272 8.58357 9.2475Z" fill="#0072FF"/>
</svg>
