<svg width="24" height="24" viewBox="0 0 24 24" fill="none" xmlns="http://www.w3.org/2000/svg">
<path fill-rule="evenodd" clip-rule="evenodd" d="M12.0001 24C18.6274 24 24 18.6274 24 12C24 5.37256 18.6274 0 12.0001 0C5.37265 0 0 5.37256 0 12C0 18.6274 5.37265 24 12.0001 24ZM14.8391 9.97733C14.1601 10.0438 13.627 10.3917 13.1985 10.9423C13.1985 10.8818 13.1976 10.8212 13.1967 10.7606C13.1946 10.6213 13.1926 10.482 13.2014 10.3433C13.2127 10.1682 13.1561 10.1007 12.9735 10.103C12.3629 10.1114 11.7521 10.1093 11.1415 10.1042C10.9785 10.1029 10.9175 10.1535 10.918 10.3278C10.9235 12.4475 10.9226 14.5671 10.9184 16.6867C10.9181 16.8391 10.9509 16.9037 11.1199 16.9013C11.5455 16.8953 11.9713 16.896 12.3971 16.8966H12.3975C12.6039 16.8969 12.8103 16.8972 13.0168 16.8968C13.0528 16.8967 13.0889 16.8911 13.1302 16.8847C13.1513 16.8814 13.1739 16.8778 13.1985 16.8748V16.6068L13.1984 15.6725V15.6704C13.1982 14.8257 13.1981 13.981 13.1991 13.1363C13.1995 12.8298 13.2534 12.5365 13.4425 12.2827C13.7586 11.8587 14.1815 11.7006 14.6918 11.8155C15.1592 11.9207 15.3681 12.2714 15.4478 12.71C15.4822 12.8991 15.494 13.0943 15.4947 13.2869C15.4977 14.0696 15.4974 14.8523 15.4972 15.6349V15.6349C15.4971 15.9588 15.497 16.2826 15.4971 16.6065C15.4972 16.8975 15.4984 16.8978 15.7968 16.8979C15.9662 16.898 16.1356 16.8973 16.305 16.8966C16.7177 16.895 17.1304 16.8933 17.5428 16.9024C17.7494 16.9069 17.813 16.8459 17.8116 16.637C17.8076 16.1043 17.8081 15.5715 17.8085 15.0387C17.809 14.35 17.8096 13.6612 17.8007 12.9726C17.796 12.6171 17.7553 12.2537 17.6695 11.9091C17.3085 10.4572 16.2284 9.84151 14.8391 9.97733ZM9.74146 13.5175C9.74146 13.7864 9.74111 14.0554 9.74076 14.3243C9.73977 15.0901 9.73877 15.8559 9.74585 16.6217C9.74776 16.835 9.69195 16.9088 9.46856 16.903C8.87258 16.8876 8.2758 16.8918 7.67959 16.9013C7.49819 16.9043 7.42718 16.8608 7.42774 16.6638C7.43393 14.5583 7.43371 12.453 7.42797 10.3476C7.42752 10.153 7.49999 10.1009 7.68094 10.1032C8.28447 10.1105 8.88822 10.1126 9.49163 10.1022C9.69712 10.0987 9.74607 10.1801 9.74484 10.3702C9.73963 11.1529 9.74031 11.9355 9.741 12.7182V12.7182C9.74123 12.9847 9.74146 13.2511 9.74146 13.5175ZM8.58357 9.2475C9.32765 9.24215 9.87457 8.69975 9.87502 7.96674C9.87558 7.21332 9.34644 6.66861 8.60787 6.66217C7.86301 6.65561 7.30078 7.21125 7.30078 7.95386C7.30089 8.69161 7.85727 9.25272 8.58357 9.2475Z" fill="#0072FF"/>
</svg>
