<svg width="152" height="64" viewBox="0 0 152 64" fill="none" xmlns="http://www.w3.org/2000/svg">
<path d="M7.77341 2.56995C11.1754 2.56995 13.79 3.19385 15.6174 4.44164C17.4447 5.68606 18.3487 7.72975 18.3487 10.512C18.3487 13.2942 17.435 15.4391 15.5882 16.7138C13.7414 17.9886 11.0976 18.6159 7.67621 18.6159H6.05296V26.5781H0.911133V3.18708C2.09019 2.95569 3.28131 2.79691 4.47834 2.71157C5.72249 2.62052 6.83058 2.56995 7.77341 2.56995ZM8.10389 7.13283C7.72481 7.13283 7.35544 7.13283 6.9958 7.13283L6.02381 7.19353V14.0732H7.64705C9.02412 14.1567 10.4004 13.8965 11.6614 13.3145C12.1231 13.0311 12.4963 12.6149 12.736 12.1159C12.9757 11.6169 13.0717 11.0564 13.0125 10.5019C13.0361 9.93095 12.919 9.36323 12.6722 8.85275C12.4396 8.4322 12.1043 8.08316 11.7003 7.84102C11.2149 7.55942 10.6848 7.37096 10.1354 7.28459C9.46302 7.17913 8.78381 7.1284 8.10389 7.13283Z" fill="#78B6FF"/>
<path d="M36.9135 26.0113C35.8528 26.3133 34.7751 26.5465 33.6865 26.7094C32.3104 26.9332 30.9192 27.0414 29.5264 27.0332C28.2751 27.0729 27.028 26.8635 25.8522 26.416C24.9455 26.0615 24.1443 25.4648 23.5292 24.686C22.9358 23.9063 22.5203 22.9964 22.3142 22.0251C22.0596 20.9117 21.9355 19.7703 21.9448 18.6258V8.57935H26.8631V18.0086C26.7789 19.2346 26.9929 20.4629 27.4852 21.58C27.743 21.9676 28.0971 22.2749 28.5097 22.4691C28.9223 22.6634 29.3779 22.7372 29.8277 22.6828C30.1776 22.6828 30.547 22.6828 30.9455 22.6322L32.005 22.5108V8.57935H36.9135V26.0113Z" fill="#78B6FF"/>
<path d="M57.9768 17.604C57.9973 18.9324 57.7933 20.2543 57.3742 21.5093C56.9978 22.6251 56.3943 23.6431 55.6052 24.4938C54.8103 25.3418 53.8441 25.995 52.7766 26.406C51.5499 26.87 50.252 27.0963 48.947 27.0737C48.3508 27.0737 47.7288 27.0434 47.0808 26.9827C46.4392 26.9321 45.7977 26.8512 45.1368 26.7601C44.4758 26.6691 43.9121 26.5679 43.3386 26.4364C42.7651 26.3048 42.2597 26.1834 41.8223 26.0418V0.819494L46.7308 0V9.01447C47.284 8.76186 47.8604 8.56863 48.4513 8.43778C49.0892 8.28925 49.7415 8.21796 50.3952 8.22532C51.5173 8.20186 52.631 8.42958 53.6612 8.89306C54.586 9.32606 55.3988 9.9814 56.0328 10.8052C56.7031 11.6813 57.1958 12.6897 57.4811 13.7696C57.8225 15.0163 57.9895 16.3077 57.9768 17.604ZM52.9711 17.4624C52.9711 14.1641 51.8047 12.5252 49.4719 12.5252C48.9664 12.522 48.4629 12.59 47.975 12.7275C47.5515 12.8384 47.1456 13.0122 46.7697 13.2435V22.5412C47.075 22.6 47.3833 22.6405 47.6931 22.6626C48.0722 22.6626 48.4707 22.7132 48.9178 22.7132C49.498 22.7532 50.0787 22.6429 50.6079 22.3922C51.1371 22.1415 51.5983 21.7582 51.9504 21.2766C52.6726 20.1514 53.0271 18.8138 52.9613 17.4624H52.9711Z" fill="#78B6FF"/>
<path d="M69.028 26.9726C67.852 26.98 66.6808 26.8166 65.5483 26.4869C64.7581 26.2523 64.0343 25.8219 63.439 25.2324C62.9195 24.6958 62.5528 24.02 62.3795 23.2798C62.1842 22.4317 62.0895 21.5619 62.0977 20.6898V0.819494L67.0159 0V19.6578C67.0108 20.0715 67.0433 20.4848 67.1132 20.8921C67.1689 21.2286 67.2987 21.5472 67.4922 21.8229C67.7069 22.0961 67.9844 22.3084 68.299 22.44C68.7519 22.6247 69.2319 22.7273 69.7181 22.7436L69.028 26.9726Z" fill="#78B6FF"/>
<path d="M77.767 26.6285H72.8584V8.57935H77.767V26.6285Z" fill="#78B6FF"/>
<path d="M81.8786 17.6037C81.8707 16.3447 82.0781 15.0943 82.491 13.9109C82.8725 12.7826 83.4749 11.7491 84.26 10.8757C85.0507 10.0094 86.0033 9.32076 87.0594 8.85227C88.2483 8.32778 89.5299 8.06926 90.821 8.09348C91.6732 8.08816 92.5235 8.17634 93.3579 8.35653C94.1245 8.52592 94.8733 8.77327 95.5935 9.09507L94.5729 13.142C94.0789 12.9464 93.5722 12.7875 93.0566 12.6665C92.4515 12.518 91.8314 12.4467 91.2098 12.454C90.6006 12.4064 89.9891 12.509 89.4251 12.7533C88.8611 12.9976 88.3603 13.3769 87.9633 13.8603C87.211 14.9351 86.8338 16.245 86.8941 17.5733C86.8045 18.9089 87.1467 20.2373 87.8661 21.3471C88.3147 21.836 88.8654 22.2108 89.4756 22.4424C90.0859 22.674 90.7391 22.7562 91.3848 22.6826C92.0361 22.6788 92.6861 22.6213 93.3287 22.5105C93.9764 22.4093 94.6097 22.2258 95.2144 21.9642L95.9045 26.1528C95.2108 26.4418 94.4912 26.6587 93.7564 26.8002C92.8248 26.9899 91.8772 27.0814 90.9279 27.0734C89.5305 27.1096 88.14 26.8586 86.8358 26.3349C85.7614 25.8907 84.7977 25.1989 84.017 24.3114C83.2682 23.4378 82.7169 22.4007 82.4035 21.2762C82.0573 20.0853 81.8805 18.848 81.8786 17.6037Z" fill="#78B6FF"/>
<path d="M18.5431 57.6759C18.2904 56.8463 18.0182 55.9965 17.7266 55.1264C17.4253 54.2563 17.1434 53.3862 16.8518 52.5262H7.92894L7.05415 55.1365C6.77227 56.0066 6.50009 56.8564 6.24738 57.6759H0.911133C1.76649 55.1061 2.57973 52.7454 3.35085 50.5938C4.12845 48.4186 4.87687 46.3648 5.61558 44.4425C6.3543 42.5203 7.0833 40.6992 7.80257 38.9691C8.52185 37.2391 9.26058 35.5596 10.0382 33.9105H14.8982C15.6434 35.5563 16.3821 37.2425 17.1143 38.9691C17.8433 40.6992 18.582 42.5304 19.3207 44.4425C20.0594 46.3547 20.8176 48.4186 21.5855 50.5938C22.3533 52.7691 23.1795 55.1264 24.0446 57.6759H18.5431ZM12.3612 39.2828C12.2446 39.6268 12.0794 40.0921 11.8558 40.6891L11.1074 42.7125C10.8255 43.4915 10.5047 44.3414 10.1354 45.2823C9.766 46.2232 9.43552 47.2046 9.07588 48.2264H15.6077L14.6357 45.2722C14.3052 44.3313 13.9942 43.4713 13.6637 42.6923C13.3332 41.9133 13.1194 41.2253 12.8958 40.6688C12.6723 40.1124 12.4973 39.6166 12.3612 39.2828Z" fill="#0072FF"/>
<path d="M25.8325 48.6509C25.8246 47.3919 26.0319 46.1415 26.4448 44.9581C26.8229 43.8305 27.422 42.7969 28.2041 41.923C28.9948 41.0566 29.9474 40.368 31.0035 39.8995C32.1924 39.375 33.474 39.1165 34.7651 39.1407C35.6173 39.1349 36.4677 39.2231 37.302 39.4038C38.0714 39.5746 38.8233 39.8219 39.5473 40.1423L38.5753 44.1892C38.0804 43.9965 37.5739 43.8376 37.059 43.7137C36.4538 43.5663 35.8338 43.495 35.2122 43.5012C34.603 43.4537 33.9916 43.5562 33.4275 43.8006C32.8635 44.0449 32.3627 44.4241 31.9658 44.9076C31.2057 45.9788 30.8246 47.2904 30.8868 48.6206C30.7972 49.9561 31.1394 51.2845 31.8588 52.3943C32.3055 52.8831 32.8545 53.2579 33.4631 53.4895C34.0718 53.7212 34.7236 53.8034 35.3678 53.7298C36.0191 53.7255 36.6691 53.668 37.3117 53.5578C37.9562 53.4565 38.5863 53.273 39.1877 53.0114L39.8778 57.2C39.187 57.4878 38.4708 57.7047 37.7394 57.8475C36.8045 58.0371 35.8537 58.1287 34.9012 58.1207C33.5038 58.1568 32.1132 57.9059 30.8091 57.3821C29.7485 56.961 28.7962 56.2896 28.0272 55.4206C27.2581 54.5516 26.6932 53.5088 26.3768 52.3741C26.0193 51.1679 25.8358 49.9132 25.8325 48.6509Z" fill="#0072FF"/>
<path d="M49.3742 39.1407C50.6016 39.1079 51.8259 39.2822 52.9998 39.6567C53.8773 39.9468 54.6743 40.4536 55.3228 41.1338C55.9158 41.793 56.3403 42.5966 56.5573 43.4709C56.8074 44.4613 56.9284 45.4822 56.9169 46.5061V57.1596C56.2171 57.3214 55.2353 57.5035 54.0009 57.7261C52.4952 57.9591 50.9741 58.0673 49.452 58.0499C48.4273 58.0595 47.4043 57.9578 46.3999 57.7464C45.5608 57.5692 44.7622 57.2257 44.0477 56.7346C43.3926 56.278 42.8686 55.6452 42.5314 54.9034C42.1579 54.0288 41.9785 53.0779 42.0065 52.1212C41.9796 51.1913 42.1874 50.2704 42.6091 49.4502C43.0018 48.7319 43.5638 48.1296 44.2421 47.6999C44.9668 47.2498 45.7584 46.9284 46.5846 46.7489C47.4864 46.556 48.405 46.4611 49.3256 46.4656C49.8904 46.4587 50.4551 46.4857 51.0169 46.5466C51.4235 46.589 51.8264 46.6635 52.2222 46.7692V46.2936C52.2391 45.9093 52.1806 45.5253 52.0502 45.1653C51.9199 44.8052 51.7204 44.4766 51.464 44.1994C50.7171 43.5915 49.7729 43.3087 48.8299 43.4102C48.0006 43.4097 47.1723 43.4706 46.3513 43.5923C45.6327 43.6969 44.9261 43.8766 44.2421 44.1285L43.62 40.0108C43.9019 39.9198 44.2615 39.8186 44.6892 39.7174C45.1169 39.6163 45.5834 39.5252 46.0889 39.4443C46.5943 39.3633 47.1289 39.2925 47.6927 39.2419C48.2512 39.1785 48.8124 39.1447 49.3742 39.1407ZM49.763 54.1042C50.249 54.1042 50.735 54.1042 51.153 54.1042C51.5045 54.0866 51.855 54.0494 52.2027 53.9929V50.118C52.0083 50.118 51.707 50.0269 51.3182 49.9864C50.9571 49.9398 50.5935 49.9161 50.2296 49.9156C49.7942 49.9155 49.3593 49.9426 48.9271 49.9966C48.554 50.0483 48.1904 50.1574 47.8482 50.3203C47.5595 50.4737 47.3122 50.6997 47.1289 50.9779C46.9481 51.2811 46.8568 51.6329 46.8665 51.9897C46.8325 52.3133 46.8865 52.6404 47.0222 52.9337C47.158 53.227 47.3701 53.4748 47.6344 53.6489C48.2941 53.9897 49.0276 54.1466 49.763 54.1042Z" fill="#0072FF"/>
<path d="M76.668 57.0889C76.2274 57.2305 75.7219 57.3621 75.1517 57.4835C74.5782 57.615 73.9756 57.7162 73.3535 57.8072C72.7314 57.8983 72.0899 57.9792 71.4095 58.0298C70.7291 58.0804 70.1459 58.1209 69.553 58.1209C68.2489 58.1418 66.9519 57.9191 65.7233 57.4633C64.6566 57.0642 63.6875 56.4251 62.8851 55.5916C62.1013 54.754 61.5011 53.7496 61.1258 52.6474C60.7024 51.3969 60.4951 50.0781 60.5135 48.7523C60.4952 47.4096 60.6755 46.072 61.0481 44.7864C61.3548 43.6799 61.8703 42.648 62.5644 41.7512C63.2154 40.932 64.0453 40.2868 64.9846 39.8694C66.0209 39.4161 67.1364 39.1922 68.2603 39.2117C68.8787 39.2044 69.4956 39.2758 70.0973 39.4242C70.6545 39.5631 71.198 39.7562 71.7206 40.0009V31.8666L76.6389 31.0471L76.668 57.0889ZM65.5192 48.5095C65.442 49.8565 65.7827 51.1936 66.4912 52.3237C66.8433 52.8053 67.3046 53.1886 67.8338 53.4393C68.363 53.69 68.9437 53.8003 69.5238 53.7603C69.9612 53.7603 70.3695 53.7603 70.7486 53.7097C71.0552 53.6884 71.3603 53.6479 71.6622 53.5883V44.2906C71.2908 44.0573 70.8878 43.8834 70.4667 43.7746C69.9755 43.6372 69.4687 43.5692 68.9601 43.5723C66.7245 43.5723 65.5192 45.2113 65.5192 48.5095Z" fill="#0072FF"/>
<path d="M80.4582 48.7828C80.4275 47.3484 80.6687 45.9217 81.1677 44.5842C81.5814 43.4514 82.2132 42.4185 83.0242 41.549C83.7825 40.7629 84.6849 40.1436 85.6778 39.7279C86.6607 39.3184 87.71 39.1089 88.7687 39.1108C89.8446 39.0549 90.9196 39.2351 91.9243 39.6394C92.929 40.0438 93.8408 40.6633 94.6007 41.458C96.0263 43.0228 96.7391 45.3295 96.7391 48.3782C96.7391 48.6716 96.7391 49.0054 96.7391 49.3899C96.7391 49.7743 96.7391 50.0576 96.671 50.3308H85.5028C85.5461 50.8309 85.696 51.3147 85.9414 51.747C86.1869 52.1792 86.5219 52.5491 86.9219 52.8297C87.9203 53.502 89.0977 53.8279 90.285 53.7605C91.1752 53.7626 92.0636 53.6779 92.9386 53.5076C93.6656 53.3785 94.3764 53.1647 95.0575 52.8702L95.7185 57.0183C95.3803 57.1869 95.0292 57.3257 94.6687 57.4331C94.1857 57.5802 93.6959 57.7018 93.201 57.7973C92.6567 57.8985 92.0832 57.9794 91.4709 58.0502C90.8575 58.119 90.241 58.1528 89.6241 58.1514C88.2352 58.1813 86.8533 57.9375 85.5514 57.4331C84.47 56.9986 83.4918 56.3256 82.684 55.4602C81.9189 54.6144 81.3445 53.6017 81.0025 52.4959C80.6333 51.296 80.4496 50.0427 80.4582 48.7828ZM91.9957 46.8302C91.9735 46.3979 91.9017 45.97 91.7819 45.5554C91.6608 45.1579 91.4696 44.7874 91.2182 44.4628C90.9519 44.1306 90.6205 43.8616 90.2462 43.6736C89.7966 43.4539 89.304 43.3465 88.8076 43.36C88.3227 43.3483 87.8415 43.4485 87.3982 43.6534C87.0257 43.8354 86.6945 44.0975 86.4262 44.4223C86.1588 44.7552 85.9513 45.1357 85.8139 45.5453C85.6727 45.9628 85.5686 46.3929 85.5028 46.8302H91.9957Z" fill="#0072FF"/>
<path d="M110.065 48.0948C110.151 46.8927 109.94 45.6878 109.453 44.5942C109.223 44.2471 108.908 43.9703 108.54 43.7924C108.173 43.6146 107.767 43.5421 107.363 43.5825C107.04 43.5625 106.715 43.5625 106.391 43.5825C106.061 43.5825 105.74 43.6533 105.419 43.7039V57.6353H100.511V40.2438C100.929 40.1224 101.424 40.0111 101.978 39.8796C102.533 39.7481 103.135 39.6368 103.767 39.5356C104.399 39.4344 105.031 39.3535 105.711 39.2928C106.391 39.2321 107.023 39.2118 107.655 39.2118C108.693 39.1727 109.729 39.341 110.707 39.7076C111.412 39.9903 112.069 40.3901 112.651 40.8913C113.392 40.3466 114.212 39.9298 115.081 39.657C115.894 39.3782 116.743 39.2281 117.598 39.2118C118.762 39.1724 119.922 39.3754 121.01 39.8088C121.851 40.1705 122.585 40.7568 123.139 41.5085C123.68 42.2854 124.052 43.1764 124.227 44.1187C124.431 45.2256 124.529 46.3507 124.519 47.4776V57.6758H119.61V48.0948C119.696 46.8927 119.485 45.6878 118.998 44.5942C118.769 44.2463 118.454 43.9689 118.086 43.7909C117.718 43.613 117.312 43.541 116.908 43.5825C116.532 43.5986 116.159 43.6667 115.8 43.7848C115.39 43.8989 114.997 44.0727 114.634 44.3008C114.791 44.8405 114.889 45.3972 114.925 45.96C114.974 46.5468 114.993 47.1741 114.993 47.8317V57.6859H110.085L110.065 48.0948Z" fill="#0072FF"/>
<path d="M144.387 39.6265C143.415 43.0967 142.355 46.3646 141.276 49.3997C140.197 52.4349 139.021 55.3993 137.738 58.2523C137.339 59.1645 136.875 60.0438 136.348 60.8828C135.933 61.5536 135.422 62.1542 134.832 62.6634C134.282 63.1288 133.647 63.473 132.966 63.6751C132.178 63.9029 131.363 64.0119 130.545 63.9989C129.83 64.0072 129.116 63.9326 128.417 63.7763C127.87 63.6589 127.333 63.493 126.813 63.2806L127.668 59.2337C128.499 59.5658 129.383 59.7306 130.273 59.7193C130.642 59.7429 131.012 59.6897 131.36 59.5629C131.709 59.4361 132.03 59.2382 132.305 58.9808C132.831 58.3957 133.241 57.708 133.51 56.9573C132.383 54.6708 131.265 52.101 130.137 49.2581C128.922 46.1213 127.868 42.9197 126.978 39.6669H132.188C132.402 40.5572 132.664 41.5184 132.966 42.5605C133.267 43.6025 133.578 44.6547 133.938 45.717C134.297 46.7793 134.608 47.8214 134.91 48.823C135.211 49.8246 135.571 50.7453 135.882 51.5749C136.173 50.7453 136.465 49.8348 136.776 48.823C137.087 47.8113 137.388 46.7996 137.69 45.717C137.991 44.6345 138.273 43.6025 138.545 42.5605C138.817 41.5184 139.07 40.537 139.293 39.6669L144.387 39.6265Z" fill="#0072FF"/>
<path d="M151.802 54.9643C151.825 55.4071 151.749 55.8494 151.58 56.2566C151.412 56.6638 151.155 57.0248 150.83 57.3115C150.236 57.8348 149.484 58.1221 148.706 58.1221C147.928 58.1221 147.176 57.8348 146.582 57.3115C146.255 57.0264 145.997 56.6656 145.829 56.258C145.66 55.8504 145.585 55.4074 145.61 54.9643C145.587 54.52 145.662 54.0759 145.831 53.6669C145.999 53.258 146.256 52.8952 146.582 52.607C147.179 52.0911 147.93 51.8087 148.706 51.8087C149.482 51.8087 150.233 52.0911 150.83 52.607C151.154 52.8967 151.41 53.2597 151.578 53.6683C151.747 54.0769 151.823 54.5202 151.802 54.9643Z" fill="#78B6FF"/>
</svg>
