<svg width="26" height="26" viewBox="0 0 26 26" fill="none" xmlns="http://www.w3.org/2000/svg">
<path fill-rule="evenodd" clip-rule="evenodd" d="M26 13C26 20.1798 20.1796 26 13.0001 26C5.82037 26 0 20.1798 0 13C0 5.82022 5.82037 0 13.0001 0C20.1796 0 26 5.82022 26 13Z" fill="#0072FF"/>
<path d="M19.54 16.86C19.54 17.5668 18.9768 18.1385 18.2917 18.1385H8.2483C7.5586 18.1385 7 17.5651 7 16.86V11.6804C7 11.3635 7.2223 11.2398 7.48735 11.3977L12.492 14.3834C12.9377 14.6495 13.6034 14.6495 14.048 14.3834L19.0527 11.3977C19.3217 11.2381 19.54 11.3618 19.54 11.6798V16.8594V16.86Z" fill="white"/>
<path d="M19.54 9.15742C19.54 8.45233 18.9814 7.87891 18.2917 7.87891H8.2483C7.56316 7.87891 7 8.45119 7 9.15742V9.42247C7 9.73825 7.21945 10.1247 7.48849 10.2854L12.9662 13.5533C13.1184 13.6445 13.4222 13.6445 13.5744 13.5533L19.0521 10.2854C19.3217 10.1241 19.54 9.73825 19.54 9.42247V9.15742Z" fill="white"/>
</svg>
