<svg width="26" height="26" viewBox="0 0 26 26" fill="none" xmlns="http://www.w3.org/2000/svg">
<path fill-rule="evenodd" clip-rule="evenodd" d="M26 13C26 20.1798 20.1796 26 13.0001 26C5.82037 26 0 20.1798 0 13C0 5.82022 5.82037 0 13.0001 0C20.1796 0 26 5.82022 26 13Z" fill="#0072FF"/>
<path fill-rule="evenodd" clip-rule="evenodd" d="M15.8782 8.15687C16.871 8.1392 17.3995 8.50261 17.904 8.96479C18.3326 8.92786 18.8892 8.68739 19.2172 8.52016C19.3234 8.46163 19.5072 8.42704 19.6133 8.36876C19.4261 8.87731 19.0948 9.2514 18.7044 9.55347C18.6178 9.6207 18.5317 9.71125 18.423 9.75407V9.7602C18.9793 9.75444 19.438 9.50243 19.8737 9.36563V9.37201C19.6448 9.73751 19.3351 10.1082 19.0046 10.3742C18.8712 10.4805 18.7377 10.587 18.6044 10.6934C18.6117 11.2851 18.5957 11.8496 18.4856 12.3469C17.8455 15.2373 16.1496 17.1996 13.4647 18.0402C12.5007 18.342 10.9427 18.466 9.83813 18.1905C9.29042 18.0539 8.7956 17.8997 8.33118 17.6957C8.07327 17.5824 7.83441 17.4597 7.60592 17.32C7.53094 17.274 7.45584 17.2281 7.38086 17.1821C7.62998 17.1897 7.91781 17.2172 8.20003 17.2134C8.45684 17.2102 8.69901 17.1833 8.93152 17.132C9.51134 17.0042 10.0261 16.8352 10.4696 16.5745C10.6846 16.4483 11.011 16.2997 11.1637 16.1174C10.8758 16.1226 10.6148 16.0554 10.4008 15.9796C9.57179 15.6855 9.08917 15.1448 8.77521 14.3323C9.0264 14.3599 9.7502 14.4257 9.91946 14.2823C9.60317 14.2647 9.29897 14.0807 9.0816 13.944C8.41459 13.5248 7.87068 12.8215 7.87483 11.7395C7.96239 11.7812 8.04995 11.8229 8.13738 11.8646C8.30493 11.9355 8.47528 11.9737 8.67519 12.015C8.75958 12.0325 8.92834 12.0824 9.02531 12.0463H9.01273C8.88377 11.8953 8.67348 11.7948 8.54379 11.633C8.11601 11.0986 7.61508 10.3123 7.86884 9.33287C7.93308 9.08442 8.13494 8.82897 8.24375 8.62653C8.2479 8.62874 8.25205 8.63083 8.2562 8.63279C8.30603 8.73769 8.41716 8.8145 8.4875 8.90222C8.70609 9.17423 8.97573 9.41912 9.25037 9.63493C10.1864 10.3703 11.0291 10.8222 12.383 11.1569C12.7263 11.2418 13.1232 11.3066 13.5334 11.3072C13.4183 10.9702 13.4553 10.4247 13.546 10.0985C13.7741 9.27802 14.2697 8.68665 14.9967 8.36974C15.1704 8.29404 15.3632 8.23883 15.5656 8.19441C15.6698 8.1819 15.7741 8.16938 15.8782 8.15687Z" fill="#FEFEFE"/>
</svg>
