<svg width="26" height="26" viewBox="0 0 26 26" fill="none" xmlns="http://www.w3.org/2000/svg">
<path fill-rule="evenodd" clip-rule="evenodd" d="M26 13C26 20.1797 20.1797 26 13 26C5.82034 26 0 20.1797 0 13C0 5.82022 5.82034 0 13 0C20.1797 0 26 5.82022 26 13Z" fill="#0072FF"/>
<path fill-rule="evenodd" clip-rule="evenodd" d="M18.8984 13.7381C18.9635 13.4853 18.9803 13.2239 18.9905 12.9671C19.0516 11.4226 18.5186 10.0903 17.4381 8.99764C16.1788 7.7244 14.6286 7.20854 12.8496 7.44399C11.2941 7.64989 10.0694 8.42842 9.15664 9.69121C8.58757 10.4786 8.27958 11.3681 8.19899 12.3314C8.15795 12.8232 8.17053 13.3169 8.28838 13.8018C8.29167 13.8273 8.29338 13.8532 8.29863 13.8785C8.43687 14.5396 8.69772 15.1502 9.06334 15.7178C9.10107 15.7764 9.14174 15.8265 9.11609 15.9151C8.94965 16.491 8.79175 17.0693 8.63556 17.648C8.62432 17.6897 8.57755 17.7388 8.61052 17.776C8.64863 17.819 8.70712 17.7911 8.75755 17.7778C9.34653 17.624 9.93612 17.4731 10.5238 17.3146C10.603 17.2933 10.6617 17.3021 10.7271 17.3427C11.5754 17.8702 12.5023 18.1427 13.5004 18.1552C15.0261 18.1743 16.3251 17.6218 17.4151 16.5707C17.8996 16.1035 18.2526 15.5414 18.5363 14.9384C18.7151 14.5585 18.8493 14.1595 18.8984 13.7381ZM20.0856 12.1794C20.1285 12.9876 20.0969 13.7909 19.8431 14.5663C18.9959 17.1545 17.2237 18.7121 14.5296 19.1765C13.1598 19.4125 11.8424 19.1567 10.6032 18.5259C10.513 18.4799 10.4354 18.4724 10.3371 18.4983C9.29044 18.7747 8.24255 19.0462 7.19465 19.3176C7.14751 19.3297 7.08987 19.3759 7.05116 19.3312C7.01953 19.2947 7.0492 19.2382 7.06337 19.1884C7.2485 18.5389 7.43009 17.8886 7.61107 17.2381C7.71475 16.8652 7.81415 16.4912 7.91905 16.1186C7.93823 16.0504 7.94433 15.9926 7.90721 15.9262C7.70498 15.5656 7.52559 15.1944 7.40262 14.7983C7.2728 14.3392 7.1563 13.8777 7.11564 13.4001C7.06703 12.8287 7.0834 12.261 7.17071 11.6933C7.22835 11.3194 7.312 10.952 7.44487 10.5999C7.86752 9.47905 8.53966 8.53327 9.46178 7.75899C10.3791 6.98873 11.4385 6.54386 12.6133 6.35898C13.565 6.20923 14.5099 6.27705 15.4298 6.55212C16.962 7.01037 18.1722 7.91093 19.0516 9.24604C19.619 10.1076 19.952 11.0513 20.0595 12.075C20.0632 12.1104 20.0765 12.1447 20.0856 12.1794Z" fill="#FEFEFE"/>
<path fill-rule="evenodd" clip-rule="evenodd" d="M15.8609 13.7822C16.1149 13.9061 16.3667 14.0347 16.6235 14.1526C16.8696 14.2658 16.9104 14.3392 16.8931 14.608C16.8427 15.3915 16.2124 15.7355 15.6386 15.8591C15.0539 15.985 14.5306 15.7632 14.0026 15.5649C13.0358 15.2019 12.2618 14.5766 11.5833 13.819C11.5592 13.7921 11.5332 13.7667 11.5082 13.7407C11.2134 13.3586 10.9023 12.9877 10.6641 12.5659C10.4367 12.1633 10.2746 11.7404 10.2879 11.2675C10.3 10.832 10.4559 10.465 10.7179 10.1071C10.9908 9.73404 11.3413 9.77573 11.7057 9.79044C11.8013 9.79433 11.8737 9.87152 11.9118 9.96158C12.1051 10.4179 12.2933 10.8764 12.4888 11.3317C12.5298 11.4271 12.4937 11.5036 12.4597 11.5826C12.3718 11.7869 12.2194 11.9464 12.0677 12.1025C11.9488 12.2249 11.9454 12.3367 12.03 12.4777C12.5561 13.3537 13.2858 13.9909 14.2416 14.3689C14.3885 14.427 14.5008 14.4064 14.5994 14.2806C14.7564 14.0802 14.9237 13.8877 15.0775 13.6848C15.1664 13.5676 15.267 13.529 15.4022 13.5859C15.5556 13.6503 15.708 13.7166 15.8609 13.7822Z" fill="#FEFEFE"/>
</svg>
