<svg width="17" height="16" fill="none" xmlns="http://www.w3.org/2000/svg"><path fill-rule="evenodd" clip-rule="evenodd" d="M13.91 1.524h1.544c.854 0 1.546.682 1.546 1.524v11.428c0 .842-.692 1.524-1.546 1.524H1.545A1.535 1.535 0 0 1 0 14.476V3.048c0-.842.692-1.524 1.545-1.524h1.546V3.81h1.545V0h1.546v1.524h4.636V3.81h1.546V0h1.545v1.524ZM2.317 13.714H5.41v-3.047H2.32v3.047ZM5.41 9.143H2.32V6.095h3.09v3.048Zm1.545 4.571h3.091v-3.047h-3.09v3.047Zm3.091-4.571h-3.09V6.095h3.09v3.048Zm1.546 0h3.09V6.095h-3.09v3.048Z" fill="#AAB0C6"/></svg>