<svg width="26" height="26" fill="none" xmlns="http://www.w3.org/2000/svg"><path fill-rule="evenodd" clip-rule="evenodd" d="M26 13c0 7.18-5.82 13-13 13S0 20.18 0 13 5.82 0 13 0s13 5.82 13 13Z" fill="#0072FF"/><path d="M19.54 16.86c0 .707-.563 1.279-1.248 1.279H8.248c-.69 0-1.248-.574-1.248-1.279v-5.18c0-.316.222-.44.487-.282l5.005 2.985c.446.267 1.111.267 1.556 0l5.005-2.985c.269-.16.487-.036.487.282v5.18Z" fill="#fff"/><path d="M19.54 9.157c0-.705-.559-1.278-1.248-1.278H8.248C7.563 7.879 7 8.45 7 9.157v.265c0 .316.22.703.488.863l5.478 3.268c.152.091.456.091.608 0l5.478-3.268c.27-.16.488-.547.488-.863v-.265Z" fill="#fff"/></svg>