<svg width="26" height="26" fill="none" xmlns="http://www.w3.org/2000/svg"><path fill-rule="evenodd" clip-rule="evenodd" d="M26 13c0 7.18-5.82 13-13 13S0 20.18 0 13 5.82 0 13 0s13 5.82 13 13Z" fill="#0072FF"/><path fill-rule="evenodd" clip-rule="evenodd" d="M15.878 8.157c.993-.018 1.521.346 2.026.808.429-.037.985-.278 1.313-.445.106-.058.29-.093.396-.151-.187.508-.518.882-.909 1.184-.086.068-.172.158-.281.201v.006c.556-.006 1.015-.258 1.45-.394v.006a4.159 4.159 0 0 1-.868 1.002l-.4.32c.007.591-.01 1.156-.12 1.653-.64 2.89-2.335 4.853-5.02 5.693-.964.302-2.522.426-3.627.15a9.325 9.325 0 0 1-1.507-.494 6.02 6.02 0 0 1-.725-.376l-.225-.138c.249.008.537.035.819.031.257-.003.499-.03.732-.081.58-.128 1.094-.297 1.538-.558.215-.126.541-.274.694-.457a2.168 2.168 0 0 1-.763-.137c-.83-.295-1.312-.835-1.626-1.648.251.028.975.094 1.144-.05-.316-.017-.62-.201-.837-.338-.667-.42-1.211-1.123-1.207-2.205l.262.126c.168.07.338.109.538.15.085.018.253.067.35.031h-.012c-.13-.15-.34-.251-.47-.413-.427-.534-.928-1.32-.674-2.3.064-.249.266-.504.375-.706a.29.29 0 0 0 .012.006c.05.105.161.182.232.27.218.271.488.516.762.732.936.735 1.78 1.187 3.133 1.522.343.085.74.15 1.15.15-.115-.337-.078-.882.013-1.209.228-.82.724-1.411 1.45-1.728.174-.076.367-.131.57-.176l.312-.037Z" fill="#FEFEFE"/></svg>