<svg width="17" height="16" fill="none" xmlns="http://www.w3.org/2000/svg"><path fill-rule="evenodd" clip-rule="evenodd" d="M4.657 2.945a.22.22 0 0 1-.036-.23.208.208 0 0 1 .19-.128h2.3L8.308.117A.208.208 0 0 1 8.495 0a.21.21 0 0 1 .186.118l1.198 2.469h2.309c.081 0 .155.049.189.126a.219.219 0 0 1-.034.23l-1.836 2.142.62 2.626a.222.222 0 0 1-.088.23.202.202 0 0 1-.239-.009L8.494 6.154l-2.29 1.77a.203.203 0 0 1-.241.006.218.218 0 0 1-.085-.232l.67-2.613-1.89-2.14ZM.054 10.969a.22.22 0 0 1-.036-.23.208.208 0 0 1 .19-.128h2.299l1.198-2.469a.208.208 0 0 1 .186-.117c.079 0 .15.045.186.117l1.198 2.469h2.309a.21.21 0 0 1 .19.126.219.219 0 0 1-.035.23L5.903 13.11l.62 2.626a.222.222 0 0 1-.087.229.202.202 0 0 1-.239-.008l-2.306-1.778-2.291 1.77a.204.204 0 0 1-.24.006.218.218 0 0 1-.086-.232l.67-2.613-1.89-2.14Zm9.173-.23a.22.22 0 0 0 .036.23l1.89 2.14-.67 2.614a.218.218 0 0 0 .085.231c.074.051.17.049.24-.005l2.292-1.77 2.306 1.775c.07.054.165.058.239.008a.222.222 0 0 0 .088-.23l-.62-2.625 1.835-2.14a.219.219 0 0 0 .035-.23.207.207 0 0 0-.19-.126h-2.308l-1.199-2.469a.208.208 0 0 0-.186-.118.208.208 0 0 0-.186.118l-1.198 2.469h-2.3a.208.208 0 0 0-.19.128Z" fill="#AAB0C6"/></svg>