<svg width="17" height="14" fill="none" xmlns="http://www.w3.org/2000/svg"><path d="M16.573 3.971 8.845.082a.768.768 0 0 0-.69 0L.426 3.971a.775.775 0 0 0-.344.36.95.95 0 0 0-.083.335V9.15c0 .43.346.778.773.778a.775.775 0 0 0 .772-.778V5.573l6.966 2.92 8.004-3.104a.778.778 0 0 0 .058-1.418Z" fill="#AAB0C6"/><path fill-rule="evenodd" clip-rule="evenodd" d="M8.202 10.05a.772.772 0 0 0 .575.01l5.132-1.986v2.178a.778.778 0 0 1-.427.695A9.915 9.915 0 0 1 8.5 12.439a9.902 9.902 0 0 1-4.982-1.492.778.778 0 0 1-.427-.695V7.906l5.111 2.144ZM0 11.667c0-.43.346-.778.773-.778.426 0 .772.349.772.778v1.556c0 .43-.346.778-.772.778A.775.775 0 0 1 0 13.222v-1.556Z" fill="#AAB0C6"/></svg>