<svg width="26" height="26" fill="none" xmlns="http://www.w3.org/2000/svg"><path fill-rule="evenodd" clip-rule="evenodd" d="M26 13c0 7.18-5.82 13-13 13S0 20.18 0 13 5.82 0 13 0s13 5.82 13 13" fill="#0072FF"/><mask id="a" style="mask-type:alpha" maskUnits="userSpaceOnUse" x="10" y="7" width="6" height="12"><path fill-rule="evenodd" clip-rule="evenodd" d="M11.49 9.612v1.326h-1.152v2.049h1.152v5.829h2.421v-5.829h1.599l.212-2.047h-1.81V9.734c0-.452.3-.558.513-.558h1.302V7.187l-1.793-.007c-1.992 0-2.444 1.485-2.444 2.432Z" fill="#fff"/></mask><g mask="url(#a)"><path fill-rule="evenodd" clip-rule="evenodd" d="M7.65 21.49h10.764V4.504H7.65V21.49Z" fill="#FEFEFE"/></g></svg>