<svg width="26" height="26" fill="none" xmlns="http://www.w3.org/2000/svg"><path fill-rule="evenodd" clip-rule="evenodd" d="M26 13c0 7.18-5.82 13-13 13S0 20.18 0 13 5.82 0 13 0s13 5.82 13 13Z" fill="#0072FF"/><path fill-rule="evenodd" clip-rule="evenodd" d="M14.322 11.82c.465-.595 1.044-.97 1.78-1.042 1.508-.147 2.68.518 3.072 2.086.093.372.137.765.143 1.149.017 1.319.002 2.639.011 3.958.002.226-.067.291-.291.287-.632-.014-1.263-.005-1.895-.005-.324 0-.325 0-.325-.315 0-1.195.002-2.39-.003-3.586 0-.208-.014-.419-.05-.623-.087-.474-.314-.852-.821-.966-.554-.124-1.013.047-1.356.505-.205.274-.264.59-.264.922-.002 1.25 0 2.499 0 3.748v.29c-.08.01-.139.023-.198.023-.686.002-1.372-.004-2.058.005-.184.003-.22-.067-.219-.232.005-2.289.006-4.578 0-6.868 0-.188.065-.243.242-.241.663.005 1.326.007 1.988-.002.198-.002.26.07.248.26-.014.215-.004.431-.004.647Zm-3.751 2.781c0 1.118-.005 2.236.005 3.353.002.23-.058.31-.3.304a46.362 46.362 0 0 0-1.942-.002c-.197.003-.274-.044-.273-.256.006-2.275.006-4.549 0-6.823 0-.21.078-.266.274-.264.655.008 1.31.01 1.965 0 .223-.005.276.083.275.289-.008 1.133-.004 2.266-.004 3.4Zm.146-5.881c0 .733-.594 1.276-1.401 1.281-.788.005-1.392-.556-1.392-1.294 0-.743.61-1.3 1.418-1.293.802.007 1.376.552 1.375 1.305Z" fill="#FEFEFE"/></svg>