<svg width="248" height="25" fill="none" xmlns="http://www.w3.org/2000/svg"><path d="M33.219 7.484h2.406v9.446h5.703V19h-8.11V7.484Zm11.89 3V19h-2.257v-8.516h2.257Zm0-3.07V9.47h-2.257V7.414h2.257Zm6.172 4.719c-.755 0-1.273.32-1.554.96-.146.34-.22.772-.22 1.298V19H47.29v-8.5h2.148v1.242c.287-.437.558-.752.813-.945.458-.344 1.04-.516 1.742-.516.88 0 1.6.232 2.156.696.563.458.844 1.22.844 2.289V19h-2.281v-5.18c0-.448-.06-.791-.18-1.03-.218-.438-.635-.657-1.25-.657ZM64.867 19H62.18l-2.04-3.64-.921.96V19H57.03V7.523h2.188v6.204l2.773-3.204h2.758l-2.977 3.258L64.867 19Zm8.383-2.5c-.057.505-.32 1.018-.79 1.54-.728.827-1.75 1.241-3.062 1.241a4.319 4.319 0 0 1-2.867-1.047c-.828-.698-1.242-1.833-1.242-3.406 0-1.474.373-2.604 1.117-3.39.75-.787 1.722-1.18 2.914-1.18.709 0 1.347.133 1.914.398.568.266 1.037.685 1.407 1.258a4.28 4.28 0 0 1 .648 1.758c.057.39.08.953.07 1.687h-5.828c.031.854.3 1.454.805 1.797.307.214.677.32 1.11.32.458 0 .83-.13 1.117-.39.156-.14.294-.336.414-.586h2.273Zm-2.203-2.61c-.037-.588-.216-1.033-.54-1.335-.317-.308-.713-.461-1.187-.461-.515 0-.916.161-1.203.484-.281.323-.458.76-.531 1.313h3.46Zm11.57-6.39V19h-2.164v-1.18c-.318.506-.68.873-1.086 1.102-.406.229-.911.344-1.515.344-.995 0-1.834-.401-2.516-1.203-.677-.808-1.016-1.842-1.016-3.102 0-1.453.334-2.596 1-3.43.672-.833 1.568-1.25 2.688-1.25.515 0 .974.115 1.375.344.4.224.726.537.976.938V7.5h2.258Zm-6 7.297c0 .786.156 1.414.469 1.883.307.474.776.71 1.406.71.63 0 1.11-.234 1.438-.703.328-.468.492-1.075.492-1.82 0-1.042-.263-1.786-.79-2.234a1.698 1.698 0 0 0-1.124-.406c-.651 0-1.13.247-1.438.742-.302.49-.453 1.099-.453 1.828Zm8.024-7.313h2.39V19h-2.39V7.484Zm8.468 4.649c-.755 0-1.273.32-1.554.96-.146.34-.22.772-.22 1.298V19h-2.218v-8.5h2.149v1.242c.286-.437.557-.752.812-.945.459-.344 1.04-.516 1.742-.516.88 0 1.6.232 2.157.696.562.458.843 1.22.843 2.289V19h-2.28v-5.18c0-.448-.06-.791-.18-1.03-.22-.438-.636-.657-1.25-.657Z" fill="#0072FF"/><path fill-rule="evenodd" clip-rule="evenodd" d="M12 24c6.627 0 12-5.373 12-12S18.627 0 12 0 0 5.373 0 12s5.373 12 12 12Zm2.84-14.023c-.68.067-1.213.415-1.642.965l-.001-.181a5.325 5.325 0 0 1 .004-.418c.012-.175-.045-.242-.228-.24-.61.008-1.22.006-1.832.001-.162-.001-.223.05-.223.224.006 2.12.005 4.24 0 6.359 0 .152.033.217.202.214.426-.006.851-.005 1.277-.004h.62c.036 0 .072-.006.113-.012l.068-.01V15.67l.001-2.534c0-.306.054-.6.244-.853.316-.424.739-.582 1.249-.467.467.105.676.455.756.894.034.19.046.384.047.577.003.783.002 1.565.002 2.348v.972c0 .29.001.29.3.29h.508c.413-.002.825-.004 1.238.005.206.005.27-.056.269-.265-.004-.533-.004-1.066-.004-1.598.001-.689.002-1.378-.007-2.066a4.693 4.693 0 0 0-.131-1.064c-.362-1.452-1.442-2.067-2.83-1.932Zm-5.099 3.54v.807c-.001.766-.002 1.532.005 2.298.002.213-.054.287-.277.281a42.848 42.848 0 0 0-1.79-.002c-.18.003-.252-.04-.251-.237.006-2.106.006-4.211 0-6.316 0-.195.072-.247.253-.245.603.008 1.207.01 1.81 0 .206-.004.255.077.254.267-.005.783-.005 1.566-.004 2.348v.8Zm-1.157-4.27c.744-.005 1.29-.547 1.291-1.28 0-.754-.529-1.298-1.267-1.305-.745-.006-1.307.55-1.307 1.292 0 .738.556 1.299 1.283 1.294Z" fill="#0072FF"/></svg>