<svg width="152" height="64" fill="none" xmlns="http://www.w3.org/2000/svg"><path d="M7.773 2.57c3.402 0 6.017.624 7.844 1.872 1.828 1.244 2.732 3.288 2.732 6.07 0 2.782-.914 4.927-2.76 6.202-1.848 1.275-4.491 1.902-7.913 1.902H6.053v7.962H.911V3.188c1.18-.232 2.37-.391 3.567-.476a46.26 46.26 0 0 1 3.295-.142Zm.33 4.563H6.997l-.972.06v6.88h1.623a8.363 8.363 0 0 0 4.014-.758c.462-.284.835-.7 1.075-1.2.24-.498.336-1.059.276-1.613a3.464 3.464 0 0 0-.34-1.65 2.7 2.7 0 0 0-.972-1.011 4.515 4.515 0 0 0-1.565-.556 12.58 12.58 0 0 0-2.031-.152Zm28.81 18.878c-1.06.302-2.138.536-3.226.698a24.996 24.996 0 0 1-4.16.324 9.478 9.478 0 0 1-3.675-.617 5.532 5.532 0 0 1-2.323-1.73 6.685 6.685 0 0 1-1.215-2.66 14.717 14.717 0 0 1-.37-3.4V8.579h4.92v9.43a7.577 7.577 0 0 0 .621 3.571 2.53 2.53 0 0 0 1.025.89 2.41 2.41 0 0 0 1.318.213c.35 0 .719 0 1.117-.05l1.06-.122V8.579h4.908v17.432Zm21.064-8.407c.02 1.328-.184 2.65-.603 3.905a8.277 8.277 0 0 1-1.769 2.985 7.646 7.646 0 0 1-2.828 1.912 10.33 10.33 0 0 1-3.83.668c-.596 0-1.218-.03-1.866-.091a33.553 33.553 0 0 1-1.944-.223 20.09 20.09 0 0 1-1.798-.324 18.554 18.554 0 0 1-1.517-.394V.819L46.731 0v9.014a8.637 8.637 0 0 1 1.72-.576 8.164 8.164 0 0 1 1.944-.213 7.569 7.569 0 0 1 3.266.668 6.447 6.447 0 0 1 2.372 1.912 8.415 8.415 0 0 1 1.448 2.965c.341 1.246.508 2.538.496 3.834Zm-5.006-.142c0-3.298-1.166-4.937-3.5-4.937a5.39 5.39 0 0 0-1.496.202c-.424.111-.83.285-1.205.516v9.298c.305.059.613.1.923.122.38 0 .778.05 1.225.05.58.04 1.16-.07 1.69-.32.53-.252.99-.635 1.342-1.116a6.486 6.486 0 0 0 1.011-3.815h.01Zm16.057 9.511a12.17 12.17 0 0 1-3.48-.486 5.037 5.037 0 0 1-2.109-1.255 4.174 4.174 0 0 1-1.06-1.952 11.08 11.08 0 0 1-.281-2.59V.82L67.016 0v19.658c-.005.413.027.827.097 1.234.056.337.186.655.38.93.214.274.491.486.806.618.453.185.933.287 1.42.304l-.691 4.229Zm8.739-.345h-4.909V8.58h4.909v18.05Zm4.112-9.024c-.008-1.26.2-2.51.612-3.693a8.713 8.713 0 0 1 1.769-3.035 8.412 8.412 0 0 1 2.8-2.024 8.9 8.9 0 0 1 3.761-.759 11.67 11.67 0 0 1 2.537.264c.766.169 1.515.416 2.236.738l-1.021 4.047c-.494-.196-1-.354-1.516-.476a7.382 7.382 0 0 0-1.847-.212 3.751 3.751 0 0 0-1.785.3 3.9 3.9 0 0 0-1.462 1.106 6.007 6.007 0 0 0-1.069 3.713 6.186 6.186 0 0 0 .972 3.774c.449.489 1 .864 1.61 1.095.61.232 1.263.314 1.909.24a11.845 11.845 0 0 0 1.944-.171 7.77 7.77 0 0 0 1.885-.547l.69 4.189c-.693.289-1.413.506-2.148.647-.931.19-1.879.281-2.828.273a10.262 10.262 0 0 1-4.092-.738 7.652 7.652 0 0 1-2.819-2.024 7.936 7.936 0 0 1-1.614-3.035 13.233 13.233 0 0 1-.524-3.672Z" fill="#78B6FF"/><path d="M18.543 57.676c-.253-.83-.525-1.68-.816-2.55-.302-.87-.584-1.74-.875-2.6H7.929l-.875 2.61c-.282.87-.554 1.72-.807 2.54H.911c.855-2.57 1.669-4.93 2.44-7.082a281.265 281.265 0 0 1 2.265-6.151 217.499 217.499 0 0 1 2.187-5.474c.719-1.73 1.458-3.41 2.235-5.059h4.86a229.333 229.333 0 0 1 2.216 5.06c.73 1.73 1.468 3.56 2.207 5.473a225.487 225.487 0 0 1 2.264 6.15 606.83 606.83 0 0 1 2.46 7.083h-5.502Zm-6.182-18.393c-.116.344-.282.81-.505 1.406l-.749 2.023c-.281.78-.602 1.63-.972 2.57-.369.941-.7 1.923-1.06 2.944h6.533l-.972-2.954c-.33-.94-.642-1.8-.972-2.58-.33-.779-.545-1.467-.768-2.023-.224-.557-.399-1.052-.535-1.386Zm13.471 9.367c-.007-1.258.2-2.508.613-3.692a8.694 8.694 0 0 1 1.76-3.035 8.41 8.41 0 0 1 2.799-2.023 8.9 8.9 0 0 1 3.761-.76 11.64 11.64 0 0 1 2.537.264c.77.17 1.521.418 2.245.738l-.972 4.047a11.764 11.764 0 0 0-1.516-.475 7.486 7.486 0 0 0-1.847-.213 3.751 3.751 0 0 0-1.785.3 3.898 3.898 0 0 0-1.461 1.107 5.944 5.944 0 0 0-1.08 3.713 6.185 6.185 0 0 0 .973 3.773c.447.49.995.864 1.604 1.096.609.231 1.26.313 1.905.24a11.967 11.967 0 0 0 1.944-.172 7.7 7.7 0 0 0 1.876-.547l.69 4.189c-.691.288-1.407.505-2.139.647a13.66 13.66 0 0 1-2.838.274 10.261 10.261 0 0 1-4.092-.739 7.331 7.331 0 0 1-2.782-1.961 7.726 7.726 0 0 1-1.65-3.047 13.228 13.228 0 0 1-.544-3.723Zm23.542-9.51a10.96 10.96 0 0 1 3.626.517 5.68 5.68 0 0 1 2.323 1.477 5.46 5.46 0 0 1 1.234 2.337c.25.99.371 2.011.36 3.035V57.16c-.7.161-1.682.344-2.916.566a27.674 27.674 0 0 1-4.549.324 14.172 14.172 0 0 1-3.052-.304 6.537 6.537 0 0 1-2.352-1.011 4.495 4.495 0 0 1-1.517-1.832 6.598 6.598 0 0 1-.524-2.782 5.49 5.49 0 0 1 .602-2.67 4.784 4.784 0 0 1 1.633-1.751 7.429 7.429 0 0 1 2.343-.951c.901-.193 1.82-.288 2.74-.283.565-.007 1.13.02 1.692.08.406.043.81.117 1.205.223v-.475a2.937 2.937 0 0 0-.172-1.129 2.85 2.85 0 0 0-.586-.966 3.563 3.563 0 0 0-2.634-.789c-.83 0-1.658.06-2.479.182-.718.105-1.425.285-2.109.537l-.622-4.118c.282-.091.642-.192 1.07-.294a23.237 23.237 0 0 1 3.004-.475 15.698 15.698 0 0 1 1.68-.101Zm.389 14.964h1.39a9.51 9.51 0 0 0 1.05-.111v-3.875c-.195 0-.496-.091-.885-.132a8.598 8.598 0 0 0-1.088-.07c-.436 0-.87.027-1.303.08a3.693 3.693 0 0 0-1.079.324 1.97 1.97 0 0 0-.72.658 1.88 1.88 0 0 0-.261 1.012c-.034.323.02.65.155.944.136.293.348.54.612.715.66.34 1.394.498 2.129.455Zm26.905 2.985c-.44.142-.946.273-1.516.395a22.96 22.96 0 0 1-1.799.323c-.622.091-1.263.172-1.944.223-.68.05-1.263.09-1.856.09a10.52 10.52 0 0 1-3.83-.657 7.677 7.677 0 0 1-2.838-1.871 8.153 8.153 0 0 1-1.76-2.945 11.639 11.639 0 0 1-.611-3.895c-.019-1.342.161-2.68.534-3.966a8.798 8.798 0 0 1 1.516-3.035 6.432 6.432 0 0 1 2.42-1.882 7.83 7.83 0 0 1 3.276-.657 7.309 7.309 0 0 1 1.837.212 8.91 8.91 0 0 1 1.624.577v-8.134l4.918-.82.029 26.042Zm-11.149-8.58a6.49 6.49 0 0 0 .972 3.815c.352.481.814.865 1.343 1.115.529.251 1.11.361 1.69.321.437 0 .846 0 1.225-.05.306-.022.611-.062.913-.122v-9.297a4.243 4.243 0 0 0-1.195-.516 5.468 5.468 0 0 0-1.507-.203c-2.235 0-3.44 1.64-3.44 4.938Zm14.939.274c-.03-1.435.21-2.861.71-4.199a8.948 8.948 0 0 1 1.856-3.035 7.962 7.962 0 0 1 2.654-1.821 7.995 7.995 0 0 1 3.09-.617 7.416 7.416 0 0 1 3.156.528 7.667 7.667 0 0 1 2.677 1.819c1.425 1.565 2.138 3.872 2.138 6.92v1.012c0 .384 0 .668-.068.94H85.503c.043.5.193.985.438 1.417.246.432.58.802.98 1.083a5.46 5.46 0 0 0 3.364.93c.89.003 1.779-.082 2.654-.252a9.542 9.542 0 0 0 2.119-.638l.66 4.148a6.44 6.44 0 0 1-1.05.415c-.482.147-.972.269-1.467.364a25.52 25.52 0 0 1-1.73.253c-.614.069-1.23.103-1.847.101-1.389.03-2.77-.214-4.073-.718a8.012 8.012 0 0 1-2.867-1.973 7.894 7.894 0 0 1-1.681-2.964c-.37-1.2-.553-2.453-.545-3.713Zm11.538-1.953a5.634 5.634 0 0 0-.214-1.275 3.404 3.404 0 0 0-.564-1.092 2.936 2.936 0 0 0-.972-.79 3.083 3.083 0 0 0-1.438-.313 3.174 3.174 0 0 0-1.41.293 2.932 2.932 0 0 0-.972.77 3.643 3.643 0 0 0-.612 1.122 7.49 7.49 0 0 0-.311 1.285h6.493Zm18.069 1.265a7.328 7.328 0 0 0-.612-3.5 2.296 2.296 0 0 0-.913-.803 2.194 2.194 0 0 0-1.177-.21 7.88 7.88 0 0 0-.972 0c-.33 0-.651.071-.972.122v13.931h-4.908V40.244c.418-.122.913-.233 1.467-.364a24.963 24.963 0 0 1 1.789-.344 27.731 27.731 0 0 1 1.944-.243c.68-.06 1.312-.081 1.944-.081a7.848 7.848 0 0 1 3.052.496 6.938 6.938 0 0 1 1.944 1.183 8.3 8.3 0 0 1 2.43-1.234 8.243 8.243 0 0 1 2.517-.445 8.442 8.442 0 0 1 3.412.597 5.204 5.204 0 0 1 2.129 1.7 6.715 6.715 0 0 1 1.088 2.61 17.67 17.67 0 0 1 .292 3.359v10.198h-4.909v-9.581a7.328 7.328 0 0 0-.612-3.5 2.285 2.285 0 0 0-.912-.804 2.187 2.187 0 0 0-1.178-.208 4.11 4.11 0 0 0-1.108.202 4.42 4.42 0 0 0-1.166.516c.157.54.255 1.096.291 1.659.049.587.068 1.214.068 1.872v9.854h-4.908l-.02-9.591Zm34.322-8.468a149.817 149.817 0 0 1-3.111 9.773 117.9 117.9 0 0 1-3.538 8.852 20.049 20.049 0 0 1-1.39 2.63 7.704 7.704 0 0 1-1.516 1.781c-.55.466-1.185.81-1.866 1.012a8.241 8.241 0 0 1-2.421.324 9.259 9.259 0 0 1-2.128-.223 9.534 9.534 0 0 1-1.604-.495l.855-4.047a6.784 6.784 0 0 0 2.605.485c.369.024.739-.03 1.087-.156.349-.127.67-.325.945-.582a6.108 6.108 0 0 0 1.205-2.024c-1.127-2.286-2.245-4.856-3.373-7.699a98.594 98.594 0 0 1-3.159-9.591h5.21c.214.89.476 1.851.778 2.893a72.13 72.13 0 0 0 .972 3.157c.359 1.062.67 2.104.972 3.106.301 1.002.661 1.922.972 2.752.291-.83.583-1.74.894-2.752.311-1.012.612-2.023.914-3.106.301-1.082.583-2.114.855-3.157.272-1.042.525-2.023.748-2.893l5.094-.04Z" fill="#0072FF"/><path d="M151.802 54.964c.023.443-.053.885-.222 1.293a2.86 2.86 0 0 1-.75 1.055 3.21 3.21 0 0 1-2.124.81 3.21 3.21 0 0 1-2.124-.81 2.824 2.824 0 0 1-.753-1.054 2.947 2.947 0 0 1-.219-1.294 2.994 2.994 0 0 1 .221-1.297c.168-.409.425-.772.751-1.06a3.246 3.246 0 0 1 2.124-.798c.776 0 1.527.282 2.124.798.324.29.58.653.748 1.061.169.409.245.852.224 1.296Z" fill="#78B6FF"/></svg>