<svg width="24" height="24" fill="none" xmlns="http://www.w3.org/2000/svg"><path fill-rule="evenodd" clip-rule="evenodd" d="M12 24c6.627 0 12-5.373 12-12S18.627 0 12 0 0 5.373 0 12s5.373 12 12 12Zm2.84-14.023c-.68.067-1.213.415-1.642.965l-.001-.181a5.325 5.325 0 0 1 .004-.418c.012-.175-.045-.242-.228-.24-.61.008-1.22.006-1.832.001-.162-.001-.223.05-.223.224.006 2.12.005 4.24 0 6.359 0 .152.033.217.202.214.426-.006.851-.005 1.277-.004h.62c.036 0 .072-.006.113-.012l.068-.01V15.67l.001-2.534c0-.306.054-.6.244-.853.316-.424.739-.582 1.249-.467.467.105.676.455.756.894.034.19.046.384.047.577.003.783.002 1.565.002 2.348v.972c0 .29.001.29.3.29h.508c.413-.002.825-.004 1.238.005.206.005.27-.056.269-.265-.004-.533-.004-1.066-.004-1.598.001-.689.002-1.378-.007-2.066a4.693 4.693 0 0 0-.131-1.064c-.362-1.452-1.442-2.067-2.83-1.932Zm-5.099 3.54v.807c-.001.766-.002 1.532.005 2.298.002.213-.054.287-.277.281a42.848 42.848 0 0 0-1.79-.002c-.18.003-.252-.04-.251-.237.006-2.106.006-4.211 0-6.316 0-.195.072-.247.253-.245.603.008 1.207.01 1.81 0 .206-.004.255.077.254.267-.005.783-.005 1.566-.004 2.348v.8Zm-1.157-4.27c.744-.005 1.29-.547 1.291-1.28 0-.754-.529-1.298-1.267-1.305-.745-.006-1.307.55-1.307 1.292 0 .738.556 1.299 1.283 1.294Z" fill="#0072FF"/></svg>