<svg width="26" height="26" fill="none" xmlns="http://www.w3.org/2000/svg"><path fill-rule="evenodd" clip-rule="evenodd" d="M26 13c0 7.18-5.82 13-13 13S0 20.18 0 13 5.82 0 13 0s13 5.82 13 13Z" fill="#0072FF"/><path fill-rule="evenodd" clip-rule="evenodd" d="M18.898 13.738c.066-.253.082-.514.093-.77.06-1.545-.472-2.878-1.553-3.97-1.26-1.274-2.81-1.79-4.588-1.554-1.556.206-2.78.984-3.693 2.247a5.161 5.161 0 0 0-.958 2.64c-.041.492-.028.986.09 1.47.003.026.004.052.01.078.138.66.399 1.271.764 1.839.038.058.079.108.053.197-.166.576-.324 1.154-.48 1.733-.012.042-.058.09-.025.128.038.043.096.015.147.002.589-.154 1.178-.305 1.766-.463a.234.234 0 0 1 .203.028 5.29 5.29 0 0 0 2.773.812c1.526.02 2.825-.533 3.915-1.584.485-.468.838-1.03 1.121-1.633.18-.38.313-.779.362-1.2Zm1.188-1.559c.043.809.01 1.612-.243 2.387-.847 2.588-2.62 4.146-5.313 4.61-1.37.237-2.688-.02-3.927-.65a.343.343 0 0 0-.266-.028 682.46 682.46 0 0 1-3.142.82c-.047.012-.105.058-.144.013-.031-.036-.002-.093.012-.143.186-.65.367-1.3.548-1.95.104-.373.203-.747.308-1.12.02-.068.025-.125-.012-.192a5.876 5.876 0 0 1-.504-1.128c-.13-.459-.247-.92-.287-1.398a7.175 7.175 0 0 1 .055-1.707c.057-.374.141-.741.274-1.093a6.77 6.77 0 0 1 2.017-2.841c.917-.77 1.976-1.215 3.151-1.4a6.316 6.316 0 0 1 2.817.193 6.418 6.418 0 0 1 3.622 2.694c.567.862.9 1.805 1.008 2.829.003.035.017.07.026.104Z" fill="#FEFEFE"/><path fill-rule="evenodd" clip-rule="evenodd" d="M15.86 13.782c.255.124.507.253.764.37.246.114.286.187.27.456-.051.784-.682 1.127-1.255 1.251-.585.126-1.108-.096-1.636-.294-.967-.363-1.741-.988-2.42-1.746-.024-.027-.05-.052-.075-.078-.295-.382-.606-.753-.844-1.175-.227-.403-.39-.826-.376-1.299.012-.435.168-.802.43-1.16.273-.373.623-.331.988-.317.095.004.168.082.206.172.193.456.381.914.577 1.37.04.095.005.172-.03.25-.087.205-.24.364-.391.52-.12.123-.123.235-.038.376.526.876 1.256 1.513 2.212 1.89.146.059.259.038.357-.087.157-.2.325-.393.479-.596.088-.117.189-.156.324-.1.154.065.306.132.459.197Z" fill="#FEFEFE"/></svg>